<svg xmlns="http://www.w3.org/2000/svg" viewBox="0 0 24 24"><linearGradient id="a" gradientUnits="userSpaceOnUse" x1="259.037" y1="-2.53" x2="259.037" y2="-547.68" gradientTransform="matrix(.04355 0 0 .04355 .718 24.04)"><stop offset="0" stop-color="#ffc33d"/><stop offset=".35" stop-color="#c74c4d"/><stop offset=".7" stop-color="#c21975"/><stop offset="1" stop-color="#7024c4"/></linearGradient><path fill="url(#a)" d="M24 3c0-1.7-1.3-3-3-3H3C1.3 0 0 1.3 0 3v18c0 1.7 1.3 3 3 3h18c1.7 0 3-1.3 3-3V3z"/><path fill="none" stroke="#FFF" stroke-width="2" stroke-miterlimit="10" d="M21 18.9c0 1.2-.9 2.1-2.1 2.1H5.1C3.9 21 3 20.1 3 18.9V5.1C3 3.9 3.9 3 5.1 3h13.8c1.2 0 2.1.9 2.1 2.1v13.8z"/><circle fill="none" stroke="#FFF" stroke-width="2" stroke-miterlimit="10" cx="12" cy="12" r="4"/><circle fill="#FFF" cx="17" cy="7" r="1"/></svg>