<svg xmlns="http://www.w3.org/2000/svg" viewBox="0 0 24 24"><path fill="#F7931E" d="M24 21c0 1.7-1.3 3-3 3H3c-1.7 0-3-1.3-3-3V3c0-1.7 1.3-3 3-3h18c1.7 0 3 1.3 3 3v18z"/><g fill="#FFF"><path d="M12 12c2.5 0 4.5-2 4.5-4.5S14.5 3 12 3 7.5 5 7.5 7.5 9.5 12 12 12zm0-6.7c1.2 0 2.2 1 2.2 2.2s-1 2.2-2.2 2.2-2.2-1-2.2-2.2 1-2.2 2.2-2.2z"/><path d="M18 11.9c-.4-.4-1.2-.4-1.6 0-2.4 2.4-6.3 2.4-8.8 0-.4-.4-1.2-.4-1.6 0s-.4 1.2 0 1.6c1.4 1.4 3.2 2.2 5 2.4l-3.2 3.2c-.4.4-.4 1.2 0 1.6s1.2.4 1.6 0l2.6-2.6 2.6 2.6c.2.2.5.3.8.3.3 0 .6-.1.8-.3.4-.4.4-1.2 0-1.6L13 15.9c1.8-.2 3.6-1 5-2.4.4-.4.4-1.1 0-1.6z"/></g></svg>