<svg xmlns="http://www.w3.org/2000/svg" viewBox="0 0 30 30"><path fill="#B0BEC5" d="M30 15c0-8.3-6.7-15-15-15S0 6.7 0 15c0 4.6 2.1 8.7 5.3 11.5l.3-.3 4.5-2.5c.6-.3.9-1 .9-1.6v-1.9s-1.2-1.6-1.7-3.8c-.4 0-.7-.3-.7-.7l-.3-3.1c0-.4.2-.8.7-.8v-3S8.6 4 14.9 4h.2C21.4 4 21 8.8 21 8.8V12h-.1c.4 0 .7.2.7.7l-.2 3c0 .4-.3.7-.7.7-.5 2.2-1.7 3.8-1.7 3.8v1.9c0 .7.2 1.3.8 1.6l4.5 2.5.3.3C27.9 23.8 30 19.6 30 15z"/><path fill="#ECEFF1" d="M9 11.7zM24.3 26.2l-4.5-2.5c-.6-.3-.8-1-.8-1.6v-1.9s1.2-1.6 1.7-3.8c.4 0 .6-.3.7-.7l.2-3c0-.4-.3-.7-.7-.7h.1V8.8S21.4 4 15.1 4H15h-.1C8.6 4 9 8.8 9 8.8v2.9c-.4 0-.7.4-.7.8l.3 3.1c0 .4.3.7.7.7.5 2.2 1.7 3.8 1.7 3.8V22c0 .7-.3 1.3-.9 1.6l-4.5 2.5c-.1.1-.2.1-.3.3C8 28.7 11.3 30 15 30c3.6 0 7-1.3 9.6-3.5l-.3-.3z"/></svg>