<svg xmlns="http://www.w3.org/2000/svg" viewBox="0 0 24 24"><path fill="#76A9EA" d="M24 21c0 1.7-1.3 3-3 3H3c-1.7 0-3-1.3-3-3V3c0-1.7 1.3-3 3-3h18c1.7 0 3 1.3 3 3v18z"/><path fill="#FFF" d="M19.5 7.1c-.3.2-.7.3-1.1.4.4-.4.7-.9.9-1.4 0-.2-.1-.3-.3-.2-.5.3-1.1.5-1.7.7h-.1c-.1 0-.2 0-.3-.1-.6-.5-1.4-.8-2.2-.8-.4 0-.7.1-1.1.2-1.1.3-1.9 1.2-2.2 2.4-.1.4-.1.8-.1 1.2v-.2l-.1-.2C8.9 9 6.7 7.9 5.2 6c-.1-.1-.2 0-.3.2-.3.5-.5 1.1-.5 1.7 0 .9.4 1.8 1 2.4-.3-.1-.5-.1-.8-.3-.1-.1-.3.3-.3.5 0 1.4.8 3.4 2 3.4h-.1c-.2 0-.4-.3-.6-.4-.1 0-.2-.1-.2.1.5 1.3 1.6 2.2 2.8 2.4-1 .7-2.2 1-3.5 1h-.4c-.1 0-.2 0-.3.2 0 .1 0 .2.1.3 1.4.8 3 1.2 4.7 1.2 1.4 0 2.8-.3 4-.9 1.1-.5 2.1-1.3 2.9-2.2.8-.9 1.3-1.9 1.7-3 .4-1.1.5-2.2.5-3.3 0-.2.2-.3.3-.4.5-.4 1-.9 1.4-1.5.2-.2.1-.3-.1-.3z"/></svg>