<svg xmlns="http://www.w3.org/2000/svg" viewBox="0 0 24 24"><path fill="#436EAB" d="M24 21c0 1.7-1.3 3-3 3H3c-1.7 0-3-1.3-3-3V3c0-1.7 1.3-3 3-3h18c1.7 0 3 1.3 3 3v18z"/><path fill="#F4F4F4" d="M18 13.7c.6.6 1.2 1.1 1.7 1.7l.6.9c.2.4 0 .9-.4 1h-2.5c-.6.1-1.2-.2-1.6-.6-.3-.4-.7-.7-1-1.1l-.4-.4c-.3-.2-.6-.2-.8.2-.2.4-.2.8-.3 1.2 0 .6-.2.7-.8.8-1.3.1-2.5-.1-3.6-.8-1-.6-1.7-1.4-2.4-2.3-1.3-1.7-2.3-3.7-3.2-5.6-.2-.6 0-.9.5-.9h2.4c.3 0 .6.2.7.5.4 1.1 1 2.1 1.7 3.1.2.3.4.5.6.7.3.2.5.1.6-.2.1-.2.1-.4.1-.6.1-.8.1-1.5 0-2.3 0-.5-.3-.8-.8-.8-.2 0-.2.1-.1 0 .2-.3.4-.2.8-.2h2.8c.4 0 .5 0 .6.5v3c0 .2.1.6.4.7.2.1.4-.1.6-.3.7-.7 1.2-1.6 1.6-2.5.2-.4.4-.7.5-1.1.1-.2.3-.3.6-.3h2.7c.1 0 .2-.1.2-.1.5.1.6.2.4.7-.2.7-.7 1.3-1.1 1.9-.5.6-.9 1.2-1.4 1.9-.2.5-.2.8.3 1.3z"/></svg>